<svg xmlns="http://www.w3.org/2000/svg" viewBox="0 0 512 512">
    <title>
      Date
    </title>
    <path
    d="M437.02,74.98C388.667,26.628,324.381,0,256,0C187.62,0,123.333,26.628,74.98,74.98C26.628,123.333,0,187.62,0,256 s26.628,132.667,74.98,181.02C123.333,485.372,187.62,512,256,512c68.381,0,132.667-26.628,181.02-74.98 C485.372,388.667,512,324.38,512,256S485.372,123.333,437.02,74.98z M256,478.609c-122.746,0-222.609-99.862-222.609-222.609 S133.254,33.391,256,33.391S478.609,133.254,478.609,256S378.746,478.609,256,478.609z"
  />
    <polygon
    points="272.696,103.316 239.304,103.316 239.304,262.294 332.502,368.339 357.585,346.296 272.696,249.706"
  />
  </svg>
