<svg
  height="512pt"
  viewBox="0 -91 512 512"
  width="512pt"
  xmlns="http://www.w3.org/2000/svg"
>
    <path
    d="m406 120c-14.386719 0-28.105469 2.910156-40.605469 8.171875l-36.234375-60.394531-18.890625-37.777344h65.730469c8.269531 0 15 6.730469 15 15s-6.730469 15-15 15v30c24.8125 0 45-20.1875 45-45s-20.1875-45-45-45h-114.269531l30 60h-112.742188l-17.140625-30h19.152344v-30h-90v30h36.296875l23.851563 41.742188-20.476563 51.191406c-7.917969-1.914063-16.175781-2.933594-24.671875-2.933594-58.449219 0-106 47.101562-106 105s47.550781 105 106 105c52.804688 0 96.621094-39.183594 103.925781-90h56.230469l52.539062-131.351562 21 35c-23.597656 19.269531-38.695312 48.578124-38.695312 81.351562 0 57.898438 47.101562 105 105 105 58.449219 0 106-47.101562 106-105s-47.550781-105-106-105zm-112.15625-30-40.234375 100.585938-57.476563-100.585938zm-123.691406 15.003906 60 104.996094h-20.226563c-4.660156-32.417969-24.175781-60.101562-51.410156-75.894531zm-22.949219 57.375c16.347656 10.789063 28.246094 27.789063 32.285156 47.621094h-51.335937zm-41.203125 137.621094c-41.90625 0-76-33.644531-76-75s34.09375-75 76-75c4.5625 0 9.019531.433594 13.359375 1.214844l-35.515625 88.773437h95.648438c-6.96875 34.195313-37.273438 60.011719-73.492188 60.011719zm300 0c-41.355469 0-75-33.644531-75-75 0-21.847656 9.394531-41.539062 24.351562-55.257812l37.785157 62.976562 25.726562-15.4375-37.800781-63.003906c7.804688-2.761719 16.195312-4.277344 24.9375-4.277344 41.90625 0 76 33.644531 76 75s-34.09375 75-76 75zm0 0"
  />
</svg>
