<svg xmlns="http://www.w3.org/2000/svg" viewBox="0 0 512 512">
    <title>
        Electric Guitar
    </title>
    <rect
    x="173.221"
    y="297.507"
    transform="matrix(0.7071 -0.7071 0.7071 0.7071 -182.9286 231.8056)"
    width="30.259"
    height="78.42"
  />
    <rect
    x="206.275"
    y="271.92"
    transform="matrix(0.7071 -0.7071 0.7071 0.7071 -149.882 245.5003)"
    width="30.259"
    height="63.507"
  />
    <path
    d="M465.14,0.098L439.837,21.94L417.897,0l-21.396,21.396l20.368,20.368l-6.946,5.996l-23.467-23.466l-21.395,21.396 l21.895,21.895l-24.545,21.186l11.959,11.959L266.269,208.832c-14.091-2.957-29.116-1.183-42.642,5.728L30.6,313.185 c-12.656,6.466-19.362,19.711-17.081,33.739c2.281,14.029,12.835,24.468,26.887,26.592l96.554,14.603l14.602,96.555 c2.125,14.054,12.564,24.606,26.593,26.887c1.821,0.296,3.626,0.441,5.406,0.441c11.943,0,22.704-6.508,28.331-17.521 l98.626-193.027c6.911-13.526,8.685-28.551,5.728-42.643l108.102-108.102l12.542,12.541l62.034-79.446L465.14,0.098z M283.574,287.685l-98.626,193.027c-0.244,0.478-0.61,1.197-1.939,0.982c-1.327-0.216-1.449-1.016-1.529-1.545l-17.938-118.612 L44.931,343.598c-0.53-0.081-1.329-0.201-1.545-1.529c-0.216-1.328,0.504-1.696,0.981-1.94l193.027-98.625 c13.299-6.796,29.326-4.266,39.885,6.294C287.839,258.358,290.368,274.387,283.574,287.685z M302.128,230.136 c-1.095-1.28-2.244-2.527-3.452-3.734c-1.207-1.207-2.454-2.357-3.734-3.453l100.824-100.824l7.185,7.185L302.128,230.136z M434.095,117.664l-27.263-27.262l46.073-39.769l11.426,28.308L434.095,117.664z"
  />
</svg>
