<svg viewBox="0 0 512 512" xmlns="http://www.w3.org/2000/svg">
  <title>
    Exhibition
  </title>
  <g>
    <path
      d="M152.82,0v236.99h206.36V0H152.82z M329.179,206.991H182.82v-0.001v-43.473l38.745-30.315l47.112,37.671l36.906-25.931 l23.596,18.554V206.991z M329.18,125.332l-22.59-17.762l-36.751,25.822l-48.072-38.439l-38.948,30.474V30H329.18V125.332z"
    />
  </g>
  <g>
    <circle cx="269.37" cy="69.08" r="15.12" />
  </g>
  <g>
    <path
      d="M485.995,382.842c-43.854,0-65.694-29.07-72.365-40.022c3.67-6.83,5.74-14.63,5.74-22.91c0-26.85-21.85-48.7-48.71-48.7
			c-26.85,0-48.7,21.85-48.7,48.7c0,8.62,2.25,16.72,6.19,23.75c-6.913,11.205-28.75,39.673-72.15,39.673
			c-43.4,0-65.237-28.468-72.15-39.673c3.94-7.03,6.19-15.13,6.19-23.75c0-26.85-21.85-48.7-48.7-48.7
			c-26.86,0-48.71,21.85-48.71,48.7c0,8.629,2.249,16.738,6.209,23.778c-6.932,11.224-28.769,39.646-72.133,39.646
			c-9.399,0-18.356-1.354-26.706-4.003v31.073c8.576,1.947,17.509,2.93,26.706,2.93c33.051,0,56.889-12.262,73.154-25.828V512h30
			V367.25c3.68,0.9,7.53,1.37,11.48,1.37s7.8-0.47,11.48-1.37V512h30V387.484c16.266,13.574,40.112,25.849,73.18,25.849
			s56.914-12.275,73.18-25.849V512h30V367.25c3.68,0.9,7.53,1.37,11.48,1.37s7.8-0.47,11.48-1.37V512h30V386.424
			c16.278,13.798,40.325,26.418,73.855,26.418c8.937,0,17.645-0.941,26.005-2.782v-30.989
			C503.878,381.571,495.132,382.842,485.995,382.842z M141.34,338.62c-10.32,0-18.71-8.39-18.71-18.71c0-1.02,0.08-2.02,0.25-2.99
			c1.43-8.9,9.16-15.71,18.46-15.71c9.29,0,17.02,6.81,18.45,15.71c0.17,0.97,0.25,1.97,0.25,2.99
			C160.04,330.23,151.65,338.62,141.34,338.62z M370.66,338.62c-10.31,0-18.7-8.39-18.7-18.71c0-1.02,0.08-2.02,0.25-2.99
			c1.43-8.9,9.16-15.71,18.45-15.71c9.3,0,17.03,6.81,18.46,15.71c0.17,0.97,0.25,1.97,0.25,2.99
			C389.37,330.23,380.98,338.62,370.66,338.62z"
    />
  </g>
</svg>
