<svg xmlns="http://www.w3.org/2000/svg" viewBox="0 0 512 512">
    <title>
      Exhibition
    </title>
    <path
    d="m492 308.635v203.365h-40v-159.502c-40.525 21.827-113.539 53.502-196 53.502s-155.475-31.675-196-53.502v159.502h-40v-203.365c-11.953-6.917-20-19.832-20-34.635 0-22.091 17.909-40 40-40s40 17.909 40 40c0 14.007-7.205 26.325-18.106 33.47 29.354 17.573 107.107 58.53 194.106 58.53s164.752-40.957 194.105-58.53c-10.9-7.145-18.105-19.463-18.105-33.47 0-22.091 17.909-40 40-40s40 17.909 40 40c0 14.803-8.047 27.718-20 34.635zm-110-24.635h-252v-284h252zm-212-244v147.716l72-72 46 46 54-54v-67.716zm172 204v-79.716l-54 54-46-46-71.716 71.716zm-53-138c11.046 0 20-8.954 20-20s-8.954-20-20-20-20 8.954-20 20 8.954 20 20 20z"
  />
  </svg>
