<svg version="1.1" xmlns="http://www.w3.org/2000/svg" viewBox="0 0 512 512">
    <g>
        <path
      d="M261.461,139.741V75.802h-62.996L173.6,17.703H87.861L62.996,75.802H0v418.495h261.461v-62.834l136.401-0.044
			l-0.044-15.069c-0.001-0.264,0.073-26.79,13.141-56.863c17.088-39.324,47.574-66.269,90.609-80.086L512,276.052V139.741H261.461z
			 M107.686,47.751h46.09l12.005,28.051H95.68L107.686,47.751z M231.414,464.249H30.048v-32.786h201.366V464.249z M231.414,401.415
			H30.048V169.788h201.366V401.415z M231.414,139.741H30.048V105.85h201.366V139.741z M481.952,254.445
			c-57.785,21.999-85.727,62.948-99.083,94.302c-8.883,20.853-12.543,40.052-14.05,52.668H261.461V169.788h220.491V254.445z"
    />
    </g>
    <g>
        <rect x="279.28" y="352.15" width="29.38" height="29.38" />
    </g>
    <g>
        <rect x="327.56" y="352.15" width="29.38" height="29.38" />
    </g>
    <g>
        <rect x="279.28" y="194.32" width="29.38" height="29.38" />
    </g>
    <g>
        <rect x="327.56" y="194.32" width="29.38" height="29.38" />
    </g>
    <g>
        <rect x="377.6" y="194.32" width="29.38" height="29.38" />
    </g>
    <g>
        <rect x="425.88" y="194.32" width="29.38" height="29.38" />
    </g>
</svg>
