<svg xmlns="http://www.w3.org/2000/svg" viewBox="0 0 512 512">
    <title>
      Guitar
    </title>
    <path
    d="M329.602,246.044L512.001,63.645L448.356,0L284.642,163.714c-15.027-12.937-33.938-19.867-53.773-19.527 c-21.439,0.344-41.544,9.077-56.61,24.59c-10.113,10.413-17.231,23.355-20.584,37.426c-3.647,15.304-17.028,25.593-32.53,25.017 c-34.463-1.27-65.774,10.381-88.211,32.82C8.43,288.543-3.023,322.907,0.684,360.801c3.599,36.793,21.186,72.659,49.521,100.994 c28.335,28.335,64.201,45.922,100.994,49.521c4.674,0.458,9.292,0.685,13.848,0.685c32.371-0.001,61.433-11.453,82.914-32.933 c22.565-22.566,34.213-54.079,32.799-88.738c-0.612-14.995,9.805-28.428,24.768-31.94c14.471-3.395,27.707-10.739,38.302-21.242 l0.248-0.248c10.625-10.753,16.471-24.984,16.471-40.115c0-15.248-5.937-29.582-16.718-40.364 C339.597,252.188,334.786,248.718,329.602,246.044z M448.356,42.407l21.237,21.237l-42.457,42.457l-21.237-21.237L448.356,42.407z M384.695,106.068l21.237,21.237l-125.37,125.37l-21.237-21.237L384.695,106.068z M322.728,315.843 c-6.661,6.607-14.973,11.223-24.051,13.354c-28.939,6.792-49.074,33.016-47.878,62.354c1.068,26.19-7.471,49.74-24.042,66.312 c-18.042,18.042-43.838,26.426-72.636,23.608c-29.9-2.925-59.274-17.444-82.712-40.88c-23.437-23.437-37.956-52.812-40.88-82.712 c-2.818-28.799,5.566-54.595,23.608-72.637c16.476-16.476,39.882-25.018,65.9-24.058c0.764,0.028,1.52,0.042,2.279,0.042 c28.571-0.002,53.814-19.9,60.529-48.074c2.103-8.823,6.572-16.944,12.926-23.487c9.497-9.779,22.133-15.283,35.581-15.499 c11.663-0.193,22.846,3.632,31.999,10.837l-46.432,46.432l63.645,63.645l25.282-25.282c6.298,0.551,12.233,3.275,16.783,7.823 c5.118,5.118,7.935,11.922,7.935,19.16C330.563,303.975,327.781,310.737,322.728,315.843z"
  />
    <path
    d="M225.118,361.352l-28.541-9.2c-4.363,13.536-6.281,27.612-5.7,41.842c0.267,6.547-0.649,15.585-6.526,21.462 l21.203,21.203c10.732-10.732,16.017-25.907,15.285-43.887C220.402,382.085,221.842,371.514,225.118,361.352z"
  />
    <path
    d="M150.536,286.774c-10.254,3.301-20.892,4.773-31.608,4.378c-17.85-0.655-32.921,4.63-43.587,15.296l21.203,21.203 c5.834-5.833,14.788-6.774,21.276-6.534c14.219,0.53,28.319-1.425,41.905-5.799L150.536,286.774z"
  />
    <rect
    x="93.209"
    y="358.789"
    transform="matrix(0.7071 -0.7071 0.7071 0.7071 -253.8399 194.7814)"
    width="29.986"
    height="90.028"
  />
  </svg>
