<svg xmlns="http://www.w3.org/2000/svg" viewBox="0 0 512 512">
    <title>
      Piano
    </title>
    <path
    d="m483.066406 192.324219-67.113281-148.789063 36.71875-16.046875-12.011719-27.488281-440.035156 192.324219h-.625v169.527343h38.050781v149.894532h30v-149.894532h134.894531v119.894532h-23.050781v30h152.210938v-30h-23.054688v-119.894532h134.894531v149.894532h30v-149.894532h38.054688v-169.527343zm-250.121094 289.417969v-117.132813h46.105469v117.136719h-46.105469zm249.054688-149.890626h-58.789062v-29.089843h58.789062zm-211-29.089843h46.105469v29.089843h-46.105469zm76.105469 0h46.105469v29.089843h-46.105469zm-228.316407 0h46.105469v29.089843h-46.105469zm-88.789062 0h58.789062v29.089843h-58.789062zm164.894531 0h46.105469v29.089843h-46.105469zm-164.894531-30v-50.4375h452v50.4375zm358.464844-217.207031 61.691406 136.769531h-374.621094l238.636719-104.300781zm0 0"
  />
  </svg>
