<svg
  version="1.1"
  id="Layer_1"
  xmlns="http://www.w3.org/2000/svg"
  viewBox="0 0 511.999 511.999"
>
    <title>
        Portrait
    </title>
    <path
    d="M119,86v324.998h0v15h273.998v-15V86H119z M150.357,395.999c7.08-38.632,40.996-68,81.642-68h48
			c40.646,0,74.562,29.368,81.642,68H150.357z M213.999,255.999c0-23.159,18.841-42,42-42s42,18.841,42,42s-18.841,42-42,42
			C232.84,297.999,213.999,279.159,213.999,255.999z M362.999,334.405c-13.876-15.025-31.765-26.292-51.952-32.068
			c10.567-12.533,16.952-28.7,16.952-46.338c0-39.701-32.299-72-72-72c-39.701,0-72,32.299-72,72
			c0,17.638,6.385,33.805,16.952,46.338c-20.187,5.776-38.076,17.042-51.952,32.068V116h213.999V334.405z"
  />
    <path
    d="M457.335,368.343l18.873-112.343l-18.873-112.343c18.888-15.413,29.815-38.36,29.661-63.167
			c-0.131-21.101-8.417-41.07-23.332-56.231C448.745,9.094,428.911,0.487,407.816,0.022c-22.351-0.5-43.385,8.003-58.951,23.567
			L255.999,4.694L163.132,23.59C147.565,8.025,126.547-0.492,104.181,0.022C83.086,0.487,63.253,9.094,48.334,24.259
			C33.419,39.42,25.132,59.39,25.002,80.491c-0.154,24.807,10.772,47.754,29.661,63.167L35.79,255.999l18.873,112.343
			c-18.888,15.413-29.815,38.36-29.661,63.167c0.131,21.101,8.417,41.07,23.332,56.231c14.919,15.165,34.752,23.772,55.847,24.237
			c22.372,0.517,43.385-8.002,58.951-23.567l92.867,18.896l92.868-18.896c15.139,15.137,35.426,23.589,57.106,23.588
			c0.613,0,1.23-0.007,1.845-0.021c21.095-0.465,40.929-9.072,55.848-24.237c14.915-15.161,23.201-35.131,23.332-56.231
			C487.15,406.704,476.223,383.756,457.335,368.343z M407.155,481.985c-16.09,0.338-31.081-6.685-41.111-19.315l-5.721-7.205
			l-104.324,21.226l-104.324-21.226l-5.721,7.205c-10.03,12.63-25.011,19.664-41.111,19.315
			c-27.313-0.603-49.672-23.329-49.842-50.662c-0.11-17.8,8.849-34.086,23.967-43.563l8.484-5.319L66.21,255.999l21.242-126.441
			l-8.484-5.319c-15.118-9.478-24.077-25.764-23.967-43.563c0.17-27.333,22.528-50.06,49.842-50.662
			c16.078-0.32,31.081,6.685,41.111,19.315l5.721,7.205l104.324-21.226l104.324,21.226l5.721-7.205
			c10.03-12.63,25.044-19.646,41.111-19.315c27.313,0.603,49.672,23.329,49.842,50.662c0.11,17.8-8.849,34.086-23.967,43.563
			l-8.484,5.319l21.242,126.441l-21.242,126.442l8.484,5.319c15.118,9.478,24.077,25.764,23.967,43.563
			C456.827,458.656,434.469,481.383,407.155,481.985z"
  />
</svg>
