<svg xmlns="http://www.w3.org/2000/svg" viewBox="0 0 512 512">
    <title>
      Tube station
    </title>
    <path
    d="m512 153.109375h-49.242188c-10.167968-33.574219-28.503906-64.335937-54.007812-89.839844-40.800781-40.800781-95.046875-63.269531-152.75-63.269531s-111.949219 22.46875-152.75 63.269531c-25.503906 25.503907-43.839844 56.265625-54.007812 89.835938h-49.242188v125.824219h49.257812c10.164063 33.570312 28.488282 64.335937 53.992188 89.839843 24.71875 24.71875 54.382812 42.695313 86.75 53.035157v89.585937h30v-82.332031c11.785156 1.964844 23.8125 2.980468 36 2.980468s24.214844-1.015624 36-2.980468v82.332031h30v-89.585937c32.367188-10.339844 62.03125-28.316407 86.75-53.035157 25.503906-25.503906 43.828125-56.269531 53.992188-89.839843h49.257812zm-256-123.109375c80.5 0 149.207031 51.402344 175.054688 123.109375h-47.816407c-23.234375-46.804687-71.539062-79.050781-127.238281-79.050781s-104.003906 32.246094-127.238281 79.050781h-47.816407c25.847657-71.707031 94.554688-123.109375 175.054688-123.109375zm92.546875 123.109375h-185.09375c20.171875-29.582031 54.121094-49.050781 92.546875-49.050781s72.375 19.46875 92.546875 49.050781zm-92.546875 248.929687c-80.5 0-149.203125-51.40625-175.050781-123.109374h47.835937c23.238282 46.796874 71.519532 79.050781 127.214844 79.050781s103.980469-32.253907 127.214844-79.050781h47.835937c-25.847656 71.703124-94.550781 123.109374-175.050781 123.109374zm-92.5625-123.109374h185.125c-20.171875 29.585937-54.132812 49.050781-92.5625 49.050781s-72.390625-19.464844-92.5625-49.050781zm318.5625-30h-452v-65.824219h452zm0 0"
  />
  </svg>
