<svg xmlns="http://www.w3.org/2000/svg">
  <symbol id="electric-guitar" viewBox="0 0 512 512">
    <title>
      Electric Guitar
    </title>
    <rect x="173.221" y="297.507" transform="matrix(0.7071 -0.7071 0.7071 0.7071 -182.9286 231.8056)" width="30.259" height="78.42"/>
    <rect x="206.275" y="271.92" transform="matrix(0.7071 -0.7071 0.7071 0.7071 -149.882 245.5003)" width="30.259" height="63.507"/>
    <path d="M465.14,0.098L439.837,21.94L417.897,0l-21.396,21.396l20.368,20.368l-6.946,5.996l-23.467-23.466l-21.395,21.396 l21.895,21.895l-24.545,21.186l11.959,11.959L266.269,208.832c-14.091-2.957-29.116-1.183-42.642,5.728L30.6,313.185 c-12.656,6.466-19.362,19.711-17.081,33.739c2.281,14.029,12.835,24.468,26.887,26.592l96.554,14.603l14.602,96.555 c2.125,14.054,12.564,24.606,26.593,26.887c1.821,0.296,3.626,0.441,5.406,0.441c11.943,0,22.704-6.508,28.331-17.521 l98.626-193.027c6.911-13.526,8.685-28.551,5.728-42.643l108.102-108.102l12.542,12.541l62.034-79.446L465.14,0.098z M283.574,287.685l-98.626,193.027c-0.244,0.478-0.61,1.197-1.939,0.982c-1.327-0.216-1.449-1.016-1.529-1.545l-17.938-118.612 L44.931,343.598c-0.53-0.081-1.329-0.201-1.545-1.529c-0.216-1.328,0.504-1.696,0.981-1.94l193.027-98.625 c13.299-6.796,29.326-4.266,39.885,6.294C287.839,258.358,290.368,274.387,283.574,287.685z M302.128,230.136 c-1.095-1.28-2.244-2.527-3.452-3.734c-1.207-1.207-2.454-2.357-3.734-3.453l100.824-100.824l7.185,7.185L302.128,230.136z M434.095,117.664l-27.263-27.262l46.073-39.769l11.426,28.308L434.095,117.664z"/>
  </symbol>
  <symbol id="piano" viewBox="0 0 512 512">
    <title>
      Piano
    </title>
    <path d="m483.066406 192.324219-67.113281-148.789063 36.71875-16.046875-12.011719-27.488281-440.035156 192.324219h-.625v169.527343h38.050781v149.894532h30v-149.894532h134.894531v119.894532h-23.050781v30h152.210938v-30h-23.054688v-119.894532h134.894531v149.894532h30v-149.894532h38.054688v-169.527343zm-250.121094 289.417969v-117.132813h46.105469v117.136719h-46.105469zm249.054688-149.890626h-58.789062v-29.089843h58.789062zm-211-29.089843h46.105469v29.089843h-46.105469zm76.105469 0h46.105469v29.089843h-46.105469zm-228.316407 0h46.105469v29.089843h-46.105469zm-88.789062 0h58.789062v29.089843h-58.789062zm164.894531 0h46.105469v29.089843h-46.105469zm-164.894531-30v-50.4375h452v50.4375zm358.464844-217.207031 61.691406 136.769531h-374.621094l238.636719-104.300781zm0 0"/>
  </symbol>
  <symbol id="guitar" viewBox="0 0 512 512">
    <title>
      Guitar
    </title>
    <path d="M329.602,246.044L512.001,63.645L448.356,0L284.642,163.714c-15.027-12.937-33.938-19.867-53.773-19.527 c-21.439,0.344-41.544,9.077-56.61,24.59c-10.113,10.413-17.231,23.355-20.584,37.426c-3.647,15.304-17.028,25.593-32.53,25.017 c-34.463-1.27-65.774,10.381-88.211,32.82C8.43,288.543-3.023,322.907,0.684,360.801c3.599,36.793,21.186,72.659,49.521,100.994 c28.335,28.335,64.201,45.922,100.994,49.521c4.674,0.458,9.292,0.685,13.848,0.685c32.371-0.001,61.433-11.453,82.914-32.933 c22.565-22.566,34.213-54.079,32.799-88.738c-0.612-14.995,9.805-28.428,24.768-31.94c14.471-3.395,27.707-10.739,38.302-21.242 l0.248-0.248c10.625-10.753,16.471-24.984,16.471-40.115c0-15.248-5.937-29.582-16.718-40.364 C339.597,252.188,334.786,248.718,329.602,246.044z M448.356,42.407l21.237,21.237l-42.457,42.457l-21.237-21.237L448.356,42.407z M384.695,106.068l21.237,21.237l-125.37,125.37l-21.237-21.237L384.695,106.068z M322.728,315.843 c-6.661,6.607-14.973,11.223-24.051,13.354c-28.939,6.792-49.074,33.016-47.878,62.354c1.068,26.19-7.471,49.74-24.042,66.312 c-18.042,18.042-43.838,26.426-72.636,23.608c-29.9-2.925-59.274-17.444-82.712-40.88c-23.437-23.437-37.956-52.812-40.88-82.712 c-2.818-28.799,5.566-54.595,23.608-72.637c16.476-16.476,39.882-25.018,65.9-24.058c0.764,0.028,1.52,0.042,2.279,0.042 c28.571-0.002,53.814-19.9,60.529-48.074c2.103-8.823,6.572-16.944,12.926-23.487c9.497-9.779,22.133-15.283,35.581-15.499 c11.663-0.193,22.846,3.632,31.999,10.837l-46.432,46.432l63.645,63.645l25.282-25.282c6.298,0.551,12.233,3.275,16.783,7.823 c5.118,5.118,7.935,11.922,7.935,19.16C330.563,303.975,327.781,310.737,322.728,315.843z"/>
    <path d="M225.118,361.352l-28.541-9.2c-4.363,13.536-6.281,27.612-5.7,41.842c0.267,6.547-0.649,15.585-6.526,21.462 l21.203,21.203c10.732-10.732,16.017-25.907,15.285-43.887C220.402,382.085,221.842,371.514,225.118,361.352z"/>
    <path d="M150.536,286.774c-10.254,3.301-20.892,4.773-31.608,4.378c-17.85-0.655-32.921,4.63-43.587,15.296l21.203,21.203 c5.834-5.833,14.788-6.774,21.276-6.534c14.219,0.53,28.319-1.425,41.905-5.799L150.536,286.774z"/>
    <rect x="93.209" y="358.789" transform="matrix(0.7071 -0.7071 0.7071 0.7071 -253.8399 194.7814)" width="29.986" height="90.028"/>
  </symbol>
  <symbol id="twitter" viewBox="0 0 24 24">
    <title>
      Twitter
    </title>
    <path d="M23.954 4.569c-.885.389-1.83.654-2.825.775 1.014-.611 1.794-1.574 2.163-2.723-.951.555-2.005.959-3.127 1.184-.896-.959-2.173-1.559-3.591-1.559-2.717 0-4.92 2.203-4.92 4.917 0 .39.045.765.127 1.124C7.691 8.094 4.066 6.13 1.64 3.161c-.427.722-.666 1.561-.666 2.475 0 1.71.87 3.213 2.188 4.096-.807-.026-1.566-.248-2.228-.616v.061c0 2.385 1.693 4.374 3.946 4.827-.413.111-.849.171-1.296.171-.314 0-.615-.03-.916-.086.631 1.953 2.445 3.377 4.604 3.417-1.68 1.319-3.809 2.105-6.102 2.105-.39 0-.779-.023-1.17-.067 2.189 1.394 4.768 2.209 7.557 2.209 9.054 0 13.999-7.496 13.999-13.986 0-.209 0-.42-.015-.63.961-.689 1.8-1.56 2.46-2.548l-.047-.02z"/>
  </symbol>
  <symbol id="gitlab" viewBox="0 0 24 24">
    <title>
      Gitlab
    </title>
    <path d="M23.955 13.587l-1.342-4.135-2.664-8.189c-.135-.423-.73-.423-.867 0L16.418 9.45H7.582L4.919 1.263C4.783.84 4.185.84 4.05 1.26L1.386 9.449.044 13.587c-.121.375.014.789.331 1.023L12 23.054l11.625-8.443c.318-.235.453-.647.33-1.024"/>
  </symbol>
  <symbol id="github" viewBox="0 0 24 24">
    <title>
      Github
    </title>
    <path d="M12 .297c-6.63 0-12 5.373-12 12 0 5.303 3.438 9.8 8.205 11.385.6.113.82-.258.82-.577 0-.285-.01-1.04-.015-2.04-3.338.724-4.042-1.61-4.042-1.61C4.422 18.07 3.633 17.7 3.633 17.7c-1.087-.744.084-.729.084-.729 1.205.084 1.838 1.236 1.838 1.236 1.07 1.835 2.809 1.305 3.495.998.108-.776.417-1.305.76-1.605-2.665-.3-5.466-1.332-5.466-5.93 0-1.31.465-2.38 1.235-3.22-.135-.303-.54-1.523.105-3.176 0 0 1.005-.322 3.3 1.23.96-.267 1.98-.399 3-.405 1.02.006 2.04.138 3 .405 2.28-1.552 3.285-1.23 3.285-1.23.645 1.653.24 2.873.12 3.176.765.84 1.23 1.91 1.23 3.22 0 4.61-2.805 5.625-5.475 5.92.42.36.81 1.096.81 2.22 0 1.606-.015 2.896-.015 3.286 0 .315.21.69.825.57C20.565 22.092 24 17.592 24 12.297c0-6.627-5.373-12-12-12"/>
  </symbol>
  <symbol id="linkedin" viewBox="0 0 24 24">
    <title>
      LinkedIn
    </title>
    <path d="M20.447 20.452h-3.554v-5.569c0-1.328-.027-3.037-1.852-3.037-1.853 0-2.136 1.445-2.136 2.939v5.667H9.351V9h3.414v1.561h.046c.477-.9 1.637-1.85 3.37-1.85 3.601 0 4.267 2.37 4.267 5.455v6.286zM5.337 7.433c-1.144 0-2.063-.926-2.063-2.065 0-1.138.92-2.063 2.063-2.063 1.14 0 2.064.925 2.064 2.063 0 1.139-.925 2.065-2.064 2.065zm1.782 13.019H3.555V9h3.564v11.452zM22.225 0H1.771C.792 0 0 .774 0 1.729v20.542C0 23.227.792 24 1.771 24h20.451C23.2 24 24 23.227 24 22.271V1.729C24 .774 23.2 0 22.222 0h.003z"/>
  </symbol>
  <symbol id="tube" viewBox="0 0 512 512">
    <title>
      Tube station
    </title>
    <path d="m512 153.109375h-49.242188c-10.167968-33.574219-28.503906-64.335937-54.007812-89.839844-40.800781-40.800781-95.046875-63.269531-152.75-63.269531s-111.949219 22.46875-152.75 63.269531c-25.503906 25.503907-43.839844 56.265625-54.007812 89.835938h-49.242188v125.824219h49.257812c10.164063 33.570312 28.488282 64.335937 53.992188 89.839843 24.71875 24.71875 54.382812 42.695313 86.75 53.035157v89.585937h30v-82.332031c11.785156 1.964844 23.8125 2.980468 36 2.980468s24.214844-1.015624 36-2.980468v82.332031h30v-89.585937c32.367188-10.339844 62.03125-28.316407 86.75-53.035157 25.503906-25.503906 43.828125-56.269531 53.992188-89.839843h49.257812zm-256-123.109375c80.5 0 149.207031 51.402344 175.054688 123.109375h-47.816407c-23.234375-46.804687-71.539062-79.050781-127.238281-79.050781s-104.003906 32.246094-127.238281 79.050781h-47.816407c25.847657-71.707031 94.554688-123.109375 175.054688-123.109375zm92.546875 123.109375h-185.09375c20.171875-29.582031 54.121094-49.050781 92.546875-49.050781s72.375 19.46875 92.546875 49.050781zm-92.546875 248.929687c-80.5 0-149.203125-51.40625-175.050781-123.109374h47.835937c23.238282 46.796874 71.519532 79.050781 127.214844 79.050781s103.980469-32.253907 127.214844-79.050781h47.835937c-25.847656 71.703124-94.550781 123.109374-175.050781 123.109374zm-92.5625-123.109374h185.125c-20.171875 29.585937-54.132812 49.050781-92.5625 49.050781s-72.390625-19.464844-92.5625-49.050781zm318.5625-30h-452v-65.824219h452zm0 0"/>
  </symbol>
  <symbol id="location" viewBox="0 0 473.271 473.271">
    <title>
      Location
    </title>
    <path d="M236.636,0C136.49,0,55.016,81.474,55.016,181.619c0,41.232,13.525,80.127,39.139,112.514l142.481,179.138l142.508-179.171 c25.587-32.354,39.112-71.25,39.112-112.481C418.256,81.474,336.781,0,236.636,0z M355.639,275.459L236.636,425.078 L117.659,275.491c-21.355-27.003-32.644-59.463-32.644-93.872C85.016,98.016,153.032,30,236.636,30s151.62,68.016,151.62,151.619 C388.256,216.028,376.968,248.489,355.639,275.459z"/>
    <path d="M236.636,104.397c-41.355,0-75,33.645-75,75s33.645,75,75,75s75-33.645,75-75S277.991,104.397,236.636,104.397z M236.636,224.397c-24.813,0-45-20.187-45-45s20.187-45,45-45s45,20.187,45,45S261.449,224.397,236.636,224.397z"/>
  </symbol>
  <symbol id="clock" viewBox="0 0 512 512">
    <title>
      Date
    </title>
    <path d="M437.02,74.98C388.667,26.628,324.381,0,256,0C187.62,0,123.333,26.628,74.98,74.98C26.628,123.333,0,187.62,0,256
				s26.628,132.667,74.98,181.02C123.333,485.372,187.62,512,256,512c68.381,0,132.667-26.628,181.02-74.98
				C485.372,388.667,512,324.38,512,256S485.372,123.333,437.02,74.98z M256,478.609c-122.746,0-222.609-99.862-222.609-222.609
				S133.254,33.391,256,33.391S478.609,133.254,478.609,256S378.746,478.609,256,478.609z"/>
    <polygon points="272.696,103.316 239.304,103.316 239.304,262.294 332.502,368.339 357.585,346.296 272.696,249.706"/>
  </symbol>
  <symbol id="page" viewBox="0 0 445 445">
    <title>
      Page
    </title>
    <path d="M278.713,0H57.5v445h330V108.787L278.713,0z M287.5,51.213L336.287,100H287.5V51.213z M87.5,415V30h170v100h100v285H87.5z"/>
    <rect x="122.5" y="192.5" width="200" height="30"/>
    <rect x="122.5" y="332.5" width="200" height="30"/>
    <rect x="122.5" y="262.5" width="200" height="30"/>
  </symbol>
  <symbol id="exhibition" viewBox="0 0 512 512">
    <title>
      Exhibition
    </title>
    <path d="m492 308.635v203.365h-40v-159.502c-40.525 21.827-113.539 53.502-196 53.502s-155.475-31.675-196-53.502v159.502h-40v-203.365c-11.953-6.917-20-19.832-20-34.635 0-22.091 17.909-40 40-40s40 17.909 40 40c0 14.007-7.205 26.325-18.106 33.47 29.354 17.573 107.107 58.53 194.106 58.53s164.752-40.957 194.105-58.53c-10.9-7.145-18.105-19.463-18.105-33.47 0-22.091 17.909-40 40-40s40 17.909 40 40c0 14.803-8.047 27.718-20 34.635zm-110-24.635h-252v-284h252zm-212-244v147.716l72-72 46 46 54-54v-67.716zm172 204v-79.716l-54 54-46-46-71.716 71.716zm-53-138c11.046 0 20-8.954 20-20s-8.954-20-20-20-20 8.954-20 20 8.954 20 20 20z"/>
  </symbol>
  <symbol id="beach" viewBox="0 0 512 512">
    <title>
      Beach
    </title>
    <g>
      <path d="M256,60c11.046,0,20-8.954,20-20V20c0-11.046-8.954-20-20-20c-11.046,0-20,8.954-20,20v20C236,51.046,244.954,60,256,60z
				"/>
      <path d="M130.667,78.948c3.705,6.416,10.427,10.002,17.338,10.002c3.394-0.001,6.833-0.865,9.983-2.683
				c9.565-5.523,12.842-17.756,7.319-27.321l-10.001-17.32c-5.523-9.566-17.755-12.842-27.321-7.319
				c-9.565,5.523-12.842,17.756-7.319,27.321L130.667,78.948z"/>
      <path d="M443.081,168.003c3.392,0,6.831-0.864,9.981-2.683l17.32-10c9.566-5.522,12.843-17.755,7.32-27.32
				c-5.523-9.567-17.755-12.845-27.32-7.32l-17.32,10c-9.566,5.522-12.843,17.755-7.32,27.32
				C429.447,164.417,436.169,168.003,443.081,168.003z"/>
      <path d="M452,252c0,11.046,8.954,20,20,20h20c11.046,0,20-8.954,20-20c0-11.046-8.954-20-20-20h-20
				C460.954,232,452,240.954,452,252z"/>
      <path d="M358.333,88.836c3.259,1.995,6.863,2.945,10.423,2.945c6.732,0,13.305-3.399,17.077-9.56l10.442-17.058
				c5.767-9.421,2.805-21.732-6.615-27.5c-9.421-5.768-21.733-2.805-27.5,6.615l-10.442,17.058
				C345.951,70.757,348.913,83.068,358.333,88.836z"/>
      <path d="M483.289,452.152C474.714,441.888,461.852,436,448,436s-26.714,5.888-35.288,16.152C402.176,464.766,391.71,472,384,472
				c-7.71,0-18.176-7.234-28.711-19.848C346.714,441.888,333.852,436,320,436s-26.714,5.888-35.288,16.152
				C274.176,464.766,263.71,472,256,472c-7.71,0-18.176-7.234-28.711-19.848C218.714,441.888,205.852,436,192,436
				s-26.714,5.888-35.288,16.152C146.176,464.766,135.71,472,128,472s-18.176-7.234-28.711-19.848C90.714,441.888,77.852,436,64,436
				s-26.714,5.888-35.288,16.152C18.176,464.766,7.71,472,0,472v40c20.464,0,40.453-11.508,59.412-34.205
				C60.35,476.671,62.065,476,64,476s3.65,0.671,4.589,1.795C87.547,500.492,107.536,512,128,512s40.453-11.508,59.412-34.205
				C188.35,476.671,190.065,476,192,476s3.65,0.671,4.589,1.795C215.547,500.492,235.536,512,256,512s40.453-11.508,59.412-34.205
				C316.35,476.671,318.065,476,320,476s3.65,0.671,4.589,1.795C343.547,500.492,363.536,512,384,512s40.453-11.508,59.412-34.205
				C444.35,476.671,446.065,476,448,476s3.65,0.671,4.589,1.795C471.547,500.492,491.536,512,512,512v-40
				C504.29,472,493.824,464.766,483.289,452.152z"/>
      <path d="M133.312,316.072c10.533-3.326,16.375-14.561,13.049-25.094C142.804,279.713,141,267.945,141,256
				c0-63.963,52.038-116,116-116s116,52.037,116,116c0,12.558-1.989,24.898-5.914,36.681c-3.49,10.48,2.177,21.805,12.656,25.295
				c2.098,0.698,4.227,1.03,6.323,1.03c8.375-0.001,16.181-5.304,18.972-13.687C410.321,289.455,413,272.861,413,256
				c0-86.019-69.981-156-156-156s-156,69.981-156,156c0,16.036,2.428,31.856,7.218,47.023
				C111.544,313.556,122.78,319.399,133.312,316.072z"/>
      <path d="M483.289,352.152C474.714,341.888,461.852,336,448,336s-26.714,5.888-35.288,16.152C402.176,364.766,391.71,372,384,372
				c-7.71,0-18.176-7.234-28.711-19.848C346.714,341.888,333.852,336,320,336s-26.714,5.888-35.288,16.152
				C274.176,364.766,263.71,372,256,372c-7.71,0-18.176-7.234-28.711-19.848C218.714,341.888,205.852,336,192,336
				s-26.714,5.888-35.288,16.152C146.176,364.766,135.71,372,128,372s-18.176-7.234-28.711-19.848C90.714,341.888,77.852,336,64,336
				s-26.714,5.888-35.288,16.152C18.176,364.766,7.71,372,0,372v40c20.464,0,40.453-11.508,59.412-34.205
				C60.35,376.671,62.065,376,64,376s3.65,0.671,4.589,1.795C87.547,400.492,107.536,412,128,412s40.453-11.508,59.412-34.205
				C188.35,376.671,190.065,376,192,376s3.65,0.671,4.589,1.795C215.547,400.492,235.536,412,256,412s40.453-11.508,59.412-34.205
				C316.35,376.671,318.065,376,320,376s3.65,0.671,4.589,1.795C343.547,400.492,363.536,412,384,412s40.453-11.508,59.412-34.205
				C444.35,376.671,446.065,376,448,376s3.65,0.671,4.589,1.795C471.547,400.492,491.536,412,512,412v-40
				C504.29,372,493.824,364.766,483.289,352.152z"/>
      <path d="M20,272h20c11.046,0,20-8.954,20-20c0-11.046-8.954-20-20-20H20c-11.046,0-20,8.954-20,20S8.954,272,20,272z"/>
      <path d="M44.163,150.069l17.069,10.424c3.254,1.988,6.852,2.935,10.405,2.935c6.739-0.001,13.319-3.407,17.088-9.58
				c5.757-9.427,2.782-21.735-6.645-27.492l-17.069-10.424c-9.426-5.758-21.735-2.782-27.493,6.645
				C31.761,132.004,34.736,144.312,44.163,150.069z"/>
    </g>
  </symbol>
  <symbol id="bookmark" viewBox="0 0 512 512">
    <title>
      Bookmark
    </title>
    <path d="M62.061,0v512h48.427L256,366.488L401.512,512h48.427V0H62.061z M403.394,448.057L256,300.663L108.606,448.057V46.545h294.788V448.057z"/>
  </symbol>
  <symbol id="note" viewBox="0 0 512 512">
    <title>
      Note
    </title>
    <g>
      <path d="M495.914,189.604c-18.965-15.914-47.343-13.424-63.228,5.506l-42.695,50.523V99.129c0-12.279-5.106-24.17-14.008-32.625
			l-56.978-54.125C310.606,4.4,299.6,0.005,288.015,0.005H44.999C20.187,0.005,0,20.192,0,45.004v421.991
			c0,24.812,20.187,44.999,44.999,44.999h299.994c24.812,0,44.999-20.187,44.999-44.999v-81.961
			C391.835,382.851,501.116,253.407,501.46,253C517.447,233.948,514.969,205.592,495.914,189.604z M299.994,35.695
			c60.013,57.008,55.751,52.841,56.876,54.309h-56.876V35.695z M359.992,466.995c0,8.271-6.729,15-15,15H44.999
			c-8.271,0-15-6.729-15-15V45.004c0-8.271,6.729-15,15-15h224.995v74.998c0,8.284,6.716,15,15,15h74.998v161.129
			c-6.443,7.624-58.178,68.843-63.77,75.46c-4.467,5.324-7.682,11.711-9.296,18.47l-13.94,58.356
			c-1.319,5.526,0.596,11.324,4.948,14.976c4.356,3.656,10.399,4.529,15.607,2.272l55.05-23.862
			c4.133-1.792,7.988-4.226,11.401-7.151V466.995z M324.315,369.827l22.978,19.28l-5.11,6.052c-1.487,1.774-3.398,3.199-5.523,4.12
			l-27.524,11.931l6.971-29.178c0.538-2.253,1.609-4.382,3.064-6.116L324.315,369.827z M366.644,366.184l-22.967-19.271
			c2.33-2.757,77.698-91.943,82.91-98.11l22.919,19.231L366.644,366.184z M478.509,233.682l-9.649,11.43l-22.908-19.222
			l9.682-11.457c5.289-6.303,14.71-7.125,20.997-1.849C483.043,217.963,483.75,227.436,478.509,233.682z"/>
    </g>
    <g>
      <path d="M224.995,90.003H74.998c-8.284,0-15,6.716-15,15s6.716,15,15,15h149.997c8.284,0,15-6.716,15-15
			S233.279,90.003,224.995,90.003z"/>
    </g>
    <g>
      <path d="M314.993,181.001H74.998c-8.284,0-15,6.716-15,15s6.716,15,15,15h239.995c8.284,0,15-6.716,15-15
			S323.277,181.001,314.993,181.001z"/>
    </g>
    <g>
      <path d="M314.993,271H74.998c-8.284,0-15,6.716-15,15c0,8.284,6.716,15,15,15h239.995c8.284,0,15-6.716,15-15
			C329.993,277.715,323.277,271,314.993,271z"/>
    </g>
  </symbol>
  <symbol id="photo" viewBox="0 0 512 512">
    <title>
      Photo
    </title>
    <path d="M256,157c-68.925,0-125,56.075-125,125s56.075,125,125,125s125-56.075,125-125S324.925,157,256,157z M256,367
      c-46.869,0-85-38.131-85-85c0-46.869,38.131-85,85-85s85,38.131,85,85C341,328.869,302.869,367,256,367z"/>
    <path d="M452,97h-73.575c-2.329,0-4.428-1.271-5.508-3.327L352.562,50.9c-0.056-0.117-0.112-0.233-0.171-0.349
      C344.512,34.791,328.67,25,311.049,25H202.376c-17.621,0-33.463,9.791-41.342,25.552c-0.059,0.116-0.115,0.232-0.171,0.349
      l-20.356,42.775C139.427,95.729,137.329,97,135,97H60c-33.084,0-60,26.916-60,60v270c0,33.084,26.916,60,60,60h392
      c33.084,0,60-26.916,60-60V157C512,123.916,485.084,97,452,97z M472,426.999c0,11.028-8.972,20-20,20H60
      c-11.028,0-20-8.972-20-20V157c0-11.028,8.972-20,20-20h75c17.62,0,33.462-9.79,41.342-25.55c0.059-0.116,0.115-0.233,0.172-0.35
      l20.356-42.775c1.079-2.054,3.177-3.325,5.506-3.325h108.673c2.329,0,4.427,1.271,5.506,3.324l20.356,42.775
      c0.057,0.117,0.113,0.234,0.172,0.35c7.88,15.76,23.722,25.55,41.342,25.55H452c11.028,0,20,8.972,20,20V426.999z"/>
    <rect x="392" y="177" width="40" height="40"/>
  </symbol>
  <symbol id="calendar" viewBox="0 0 512 512">
    <title>
      Calendar
    </title>
    <circle cx="386" cy="210" r="20"/>
    <path d="M432,40h-26V20c0-11.046-8.954-20-20-20c-11.046,0-20,8.954-20,20v20h-91V20c0-11.046-8.954-20-20-20
				c-11.046,0-20,8.954-20,20v20h-90V20c0-11.046-8.954-20-20-20s-20,8.954-20,20v20H80C35.888,40,0,75.888,0,120v312
				c0,44.112,35.888,80,80,80h153c11.046,0,20-8.954,20-20c0-11.046-8.954-20-20-20H80c-22.056,0-40-17.944-40-40V120
				c0-22.056,17.944-40,40-40h25v20c0,11.046,8.954,20,20,20s20-8.954,20-20V80h90v20c0,11.046,8.954,20,20,20s20-8.954,20-20V80h91
				v20c0,11.046,8.954,20,20,20c11.046,0,20-8.954,20-20V80h26c22.056,0,40,17.944,40,40v114c0,11.046,8.954,20,20,20
				c11.046,0,20-8.954,20-20V120C512,75.888,476.112,40,432,40z"/>
    <path d="M391,270c-66.72,0-121,54.28-121,121s54.28,121,121,121s121-54.28,121-121S457.72,270,391,270z M391,472
				c-44.663,0-81-36.336-81-81s36.337-81,81-81c44.663,0,81,36.336,81,81S435.663,472,391,472z"/>
    <path d="M420,371h-9v-21c0-11.046-8.954-20-20-20c-11.046,0-20,8.954-20,20v41c0,11.046,8.954,20,20,20h29
				c11.046,0,20-8.954,20-20C440,379.954,431.046,371,420,371z"/>
    <circle cx="299" cy="210" r="20"/>
    <circle cx="212" cy="297" r="20"/>
    <circle cx="125" cy="210" r="20"/>
    <circle cx="125" cy="297" r="20"/>
    <circle cx="125" cy="384" r="20"/>
    <circle cx="212" cy="384" r="20"/>
    <circle cx="212" cy="210" r="20"/>
  </symbol>
  <symbol id="tag" viewBox="0 0 486.82 486.82">
    <title>
      Tag
    </title>
    <path d="M486.82,21.213L465.607,0l-42.768,42.768H238.991L0,281.759L205.061,486.82l238.992-238.991V63.98L486.82,21.213z
		 M414.053,235.403L205.061,444.394L42.427,281.759L251.418,72.768h141.421l-40.097,40.097c-14.56-6.167-32.029-3.326-43.898,8.543
		c-15.621,15.621-15.621,40.948,0,56.569c15.621,15.621,40.948,15.621,56.568,0c11.869-11.869,14.71-29.338,8.543-43.898
		l40.097-40.097V235.403z"/>
  </symbol>
</svg>
